<svg viewBox="0 0 36 36" xmlns="http://www.w3.org/2000/svg"><g fill-rule="nonzero" fill="none"><circle fill="#55ACEE" cx="17.7" cy="17.512" r="17.512"/><path d="M28.426 12.585a8.352 8.352 0 0 1-2.4.658 4.2 4.2 0 0 0 1.841-2.315 8.38 8.38 0 0 1-2.658 1.015 4.189 4.189 0 0 0-7.133 3.818 11.882 11.882 0 0 1-8.628-4.374 4.19 4.19 0 0 0 1.3 5.589 4.156 4.156 0 0 1-1.9-.524v.053a4.188 4.188 0 0 0 3.358 4.1 4.2 4.2 0 0 1-1.89.072 4.19 4.19 0 0 0 3.91 2.907 8.45 8.45 0 0 1-6.2 1.733A11.9 11.9 0 0 0 26.35 15.294c0-.181 0-.362-.012-.541a8.488 8.488 0 0 0 2.089-2.166l-.001-.002z" fill="#FFF"/></g></svg>
